<svg xmlns="http://www.w3.org/2000/svg" width="20" height="16" viewBox="0 0 20 16">
    <defs>
        <filter id="f0ptbacnqa">
            <feColorMatrix in="SourceGraphic" values="0 0 0 0 0.117647 0 0 0 0 0.117647 0 0 0 0 0.117647 0 0 0 1.000000 0"/>
        </filter>
    </defs>
    <g fill="none" fill-rule="evenodd">
        <g>
            <g>
                <g filter="url(#f0ptbacnqa)" transform="translate(-959 -2724) translate(2 2662) translate(933 24)">
                    <g>
                        <path fill="#000" fill-rule="nonzero" d="M19.2 2.046c-.706.313-1.466.524-2.262.62.813-.488 1.438-1.26 1.732-2.18-.761.452-1.604.78-2.502.956C15.45.677 14.426.198 13.293.198c-2.543 0-4.412 2.373-3.838 4.836C6.182 4.87 3.28 3.302 1.337.92.305 2.69.802 5.006 2.555 6.18 1.91 6.157 1.302 5.98.772 5.685.729 7.51 2.037 9.218 3.932 9.598c-.555.15-1.162.185-1.78.067.5 1.565 1.955 2.703 3.68 2.735C4.176 13.698 2.09 14.278 0 14.032c1.743 1.118 3.814 1.77 6.038 1.77 7.314 0 11.446-6.177 11.196-11.717.77-.556 1.438-1.25 1.966-2.04z" transform="translate(24 38)"/>
                    </g>
                </g>
            </g>
        </g>
    </g>
</svg>
