<svg xmlns="http://www.w3.org/2000/svg" width="14" height="14" viewBox="0 0 14 14">
    <g fill="none" fill-rule="evenodd">
        <g fill="#000" fill-rule="nonzero">
            <g>
                <path d="M768.707 21.293c.36.36.389.928.084 1.32l-.084.094L763.415 28l5.292 5.293c.39.39.39 1.024 0 1.414-.15.15-.336.243-.53.277l-.118.014h-.118c-.196-.011-.39-.08-.554-.208l-.094-.083L762 29.415l-5.293 5.292c-.15.15-.336.243-.53.277l-.118.014h-.118c-.236-.014-.468-.11-.648-.29-.36-.361-.388-.929-.083-1.32l.083-.095L760.585 28l-5.292-5.293c-.39-.39-.39-1.024 0-1.414.36-.36.928-.388 1.32-.083l.094.083L762 26.585l5.293-5.292c.21-.21.491-.307.766-.291l.118.014c.194.034.38.127.53.277z" transform="translate(-1079 -355) translate(0 80) translate(324 254)"/>
            </g>
        </g>
    </g>
</svg>
